# xmcd
#
# Track frame offsets:
# 150
# 46405
# 69234
# 106052
#
# Disc length: 2129 seconds
#
# Revision: 0
# Processed by: cddbd v1.4PL0 Copyright (c) Steve Scherf et al.
# Submitted via: Audion 3.0.2 (http://www.panic.com/audion/)
#
DISCID=29084f04
DTITLE=Y.A.C.H.T. <<VERSION>> - - "steps"_
DYEAR=1900
DGENRE=
TTITLE0=step 1
TTITLE1=step 2a
TTITLE2=step 2b
TTITLE3=step 3
EXTD=
EXTT0=
EXTT1=
EXTT2=
EXTT3=
PLAYORDER=
